<?xml version="1.0" encoding="utf-8"?>
<!-- Generator: Adobe Illustrator 23.0.3, SVG Export Plug-In . SVG Version: 6.00 Build 0)  -->
<svg version="1.1" id="Layer_1" xmlns="http://www.w3.org/2000/svg" xmlns:xlink="http://www.w3.org/1999/xlink" x="0px" y="0px"
	 viewBox="0 0 720 504" style="enable-background:new 0 0 720 504;" xml:space="preserve">
<style type="text/css">
	.st0{opacity:0.43;}
	.st1{fill:#FFFFFF;}
	.st2{fill:#F16D23;}
	.st3{fill:#0C3C55;}
</style>
<rect x="-10.06" class="st3" width="730.06" height="504"/>
<path class="st2" d="M261.59,180.71c0-9.09,2.51-16.27,7.54-21.55c5.03-5.28,11.84-7.92,20.45-7.92c8.63,0,15.49,2.65,20.57,7.94
	c5.08,5.29,7.62,12.47,7.62,21.54c0,9.07-2.54,16.24-7.62,21.54c-5.08,5.29-11.93,7.94-20.57,7.94c-8.61,0-15.43-2.64-20.45-7.92
	C264.1,196.99,261.59,189.8,261.59,180.71z M276.14,180.71c0,5.7,1.16,10.07,3.48,13.1c2.32,3.04,5.64,4.56,9.97,4.56
	c4.35,0,7.7-1.52,10.05-4.56c2.34-3.04,3.51-7.41,3.51-13.1c0-5.67-1.17-10.03-3.51-13.08c-2.34-3.05-5.69-4.58-10.05-4.58
	c-4.33,0-7.65,1.52-9.97,4.56C277.29,170.65,276.14,175.01,276.14,180.71z"/>
<path class="st2" d="M326.38,208.63v-55.95h25.6c6.48,0,11.42,1.5,14.81,4.5c3.39,3,5.09,7.34,5.09,13.01
	c0,5.95-1.67,10.51-5.01,13.69c-3.34,3.18-8.15,4.77-14.43,4.77h-11.66v19.98H326.38z M340.78,177.37h9.5
	c2.58,0,4.49-0.55,5.72-1.65c1.23-1.1,1.84-2.8,1.84-5.11c0-2.23-0.64-3.89-1.92-4.99c-1.28-1.1-3.21-1.65-5.79-1.65h-9.34V177.37z"
	/>
<path class="st1" d="M429.62,189.03c-0.96,6.71-3.6,11.91-7.92,15.61c-4.32,3.7-9.89,5.54-16.73,5.54c-8.18,0-14.77-2.67-19.79-8.01
	s-7.52-12.37-7.52-21.08c0-9.06,2.55-16.29,7.65-21.69c5.1-5.39,11.93-8.09,20.49-8.09c6.79,0,12.33,1.79,16.62,5.36
	c4.29,3.57,6.74,8.44,7.35,14.62h-13.44c-0.66-2.68-1.91-4.7-3.74-6.06c-1.84-1.35-4.25-2.03-7.24-2.03c-4,0-7.17,1.58-9.5,4.75
	c-2.33,3.17-3.49,7.5-3.49,12.99c0,5.47,1.1,9.72,3.3,12.74c2.2,3.03,5.3,4.54,9.31,4.54c3.21,0,5.79-0.79,7.73-2.36
	c1.94-1.57,3.15-3.85,3.63-6.84H429.62z"/>
<g>
	<path class="st2" d="M201.01,164.94c17.95,0,35.57,0,53.25,0c0-4.56,0-8.92,0-13.37c-3.03-0.33-5.59-0.44-7.85,2.24
		c-3.27,3.89-7.03,7.37-10.58,11.03c-0.2-0.11-0.4-0.22-0.59-0.32c0-4.28,0-8.56,0-13.09c-1.47,0-2.68,0-3.88,0
		c-9.45,0-18.9,0-28.35,0.01c-0.88,0-2.01-0.32-2.01,1.21C201.01,156.67,201.01,160.7,201.01,164.94z"/>
	<path class="st2" d="M235.11,165.17c-5.27,5.3-10.21,10.22-15.06,15.22c-0.45,0.46-0.49,1.46-0.49,2.21
		c-0.04,6.56-0.02,13.11-0.02,19.67c0,2.07,0,4.14,0,6.36c5.3,0,10.37,0,15.58,0C235.11,194.28,235.11,180.05,235.11,165.17z"/>
	<path class="st2" d="M201.01,164.94c0-4.24,0-8.27,0-12.3c0-1.53,1.13-1.21,2.01-1.21c9.45-0.01,18.9-0.01,28.35-0.01
		c1.21,0,2.41,0,3.88,0c0,4.54,0,8.81,0,13.09c0.2,0.11,0.4,0.22,0.59,0.32c3.55-3.66,7.31-7.14,10.58-11.03
		c2.26-2.69,4.82-2.58,7.85-2.24c0,4.44,0,8.8,0,13.37C236.58,164.94,218.96,164.94,201.01,164.94z"/>
	<path class="st2" d="M235.11,165.17c0,14.88,0,29.11,0,43.46c-5.21,0-10.28,0-15.58,0c0-2.22,0-4.29,0-6.36
		c0-6.56-0.02-13.11,0.02-19.67c0-0.75,0.04-1.75,0.49-2.21C224.9,175.39,229.84,170.47,235.11,165.17z"/>
</g>
<polygon class="st1" points="438.22,209.57 465.59,191.16 494.17,209.57 494.17,213.84 465.54,195.29 438.22,213.84 "/>
<polygon class="st2" points="494.17,206.79 465.46,188.75 438.22,205.8 438.22,189.47 453.19,180.88 438.22,172.34 438.22,156.01 
	465.46,173.21 494.17,154.98 494.17,171.5 477.91,180.88 494.17,190.38 "/>
<polygon class="st1" points="494.17,206.74 465.46,188.7 438.22,205.76 438.22,189.42 465.46,173.17 494.17,190.34 "/>
<path class="st1" d="M263.14,319.63c0-9.09,2.51-16.27,7.54-21.55c5.03-5.28,11.84-7.92,20.45-7.92c8.63,0,15.49,2.65,20.57,7.94
	c5.08,5.29,7.62,12.47,7.62,21.54c0,9.07-2.54,16.24-7.62,21.54c-5.08,5.29-11.93,7.94-20.57,7.94c-8.61,0-15.43-2.64-20.45-7.92
	C265.65,335.9,263.14,328.72,263.14,319.63z M277.68,319.63c0,5.7,1.16,10.07,3.48,13.1c2.32,3.04,5.64,4.56,9.97,4.56
	c4.35,0,7.7-1.52,10.05-4.56c2.34-3.04,3.51-7.41,3.51-13.1c0-5.67-1.17-10.03-3.51-13.08c-2.34-3.05-5.69-4.58-10.05-4.58
	c-4.33,0-7.65,1.52-9.97,4.56C278.84,309.56,277.68,313.93,277.68,319.63z"/>
<path class="st1" d="M327.93,347.54V291.6h25.6c6.48,0,11.42,1.5,14.81,4.5c3.39,3,5.09,7.34,5.09,13.01
	c0,5.95-1.67,10.51-5.01,13.69c-3.34,3.18-8.15,4.77-14.43,4.77h-11.66v19.98H327.93z M342.33,316.29h9.5
	c2.58,0,4.49-0.55,5.72-1.65c1.23-1.1,1.84-2.8,1.84-5.11c0-2.23-0.64-3.89-1.92-4.99c-1.28-1.1-3.21-1.65-5.79-1.65h-9.34V316.29z"
	/>
<path class="st2" d="M431.16,327.95c-0.96,6.71-3.6,11.91-7.92,15.61c-4.32,3.7-9.89,5.54-16.73,5.54c-8.18,0-14.77-2.67-19.79-8.01
	s-7.52-12.37-7.52-21.08c0-9.06,2.55-16.29,7.65-21.69c5.1-5.39,11.93-8.09,20.49-8.09c6.79,0,12.33,1.79,16.62,5.36
	c4.29,3.57,6.74,8.44,7.35,14.62h-13.44c-0.66-2.68-1.91-4.7-3.74-6.06c-1.84-1.35-4.25-2.03-7.24-2.03c-4,0-7.17,1.58-9.5,4.75
	c-2.33,3.17-3.49,7.5-3.49,12.99c0,5.47,1.1,9.72,3.3,12.74c2.2,3.03,5.3,4.54,9.31,4.54c3.21,0,5.79-0.79,7.73-2.36
	c1.94-1.57,3.15-3.85,3.63-6.84H431.16z"/>
<g>
	<path class="st1" d="M202.56,303.86c17.95,0,35.57,0,53.25,0c0-4.56,0-8.92,0-13.37c-3.03-0.33-5.59-0.44-7.85,2.24
		c-3.27,3.89-7.03,7.37-10.58,11.03c-0.2-0.11-0.4-0.22-0.59-0.32c0-4.28,0-8.56,0-13.09c-1.47,0-2.68,0-3.88,0
		c-9.45,0-18.9,0-28.35,0.01c-0.88,0-2.01-0.32-2.01,1.21C202.56,295.59,202.56,299.62,202.56,303.86z"/>
	<path class="st1" d="M236.66,304.09c-5.27,5.3-10.21,10.22-15.06,15.22c-0.45,0.46-0.49,1.46-0.49,2.21
		c-0.04,6.56-0.02,13.11-0.02,19.67c0,2.07,0,4.14,0,6.36c5.3,0,10.37,0,15.58,0C236.66,333.2,236.66,318.97,236.66,304.09z"/>
	<path class="st1" d="M202.56,303.86c0-4.24,0-8.27,0-12.3c0-1.53,1.13-1.21,2.01-1.21c9.45-0.01,18.9-0.01,28.35-0.01
		c1.21,0,2.41,0,3.88,0c0,4.54,0,8.81,0,13.09c0.2,0.11,0.4,0.22,0.59,0.32c3.55-3.66,7.31-7.14,10.58-11.03
		c2.26-2.69,4.82-2.58,7.85-2.24c0,4.44,0,8.8,0,13.37C238.13,303.86,220.51,303.86,202.56,303.86z"/>
	<path class="st1" d="M236.66,304.09c0,14.88,0,29.11,0,43.46c-5.21,0-10.28,0-15.58,0c0-2.22,0-4.29,0-6.36
		c0-6.56-0.02-13.11,0.02-19.67c0-0.75,0.04-1.75,0.49-2.21C226.45,314.3,231.39,309.39,236.66,304.09z"/>
</g>
<polygon class="st2" points="439.77,348.49 467.14,330.08 495.72,348.49 495.72,352.76 467.09,334.2 439.77,352.76 "/>
<polygon class="st1" points="495.72,345.7 467,327.66 439.77,344.72 439.77,328.39 454.73,319.8 439.77,311.26 439.77,294.92 
	467,312.13 495.72,293.9 495.72,310.42 479.46,319.8 495.72,329.3 "/>
<polygon class="st2" points="495.72,345.66 467,327.62 439.77,344.67 439.77,328.34 467,312.09 495.72,329.25 "/>
</svg>
