<?xml version="1.0" encoding="utf-8"?>
<!-- Generator: Adobe Illustrator 23.0.3, SVG Export Plug-In . SVG Version: 6.00 Build 0)  -->
<svg version="1.1" id="Layer_1" xmlns="http://www.w3.org/2000/svg" xmlns:xlink="http://www.w3.org/1999/xlink" x="0px" y="0px"
	 viewBox="0 0 720 504" style="enable-background:new 0 0 720 504;" xml:space="preserve">
<style type="text/css">
	.st0{opacity:0.43;}
	.st1{fill:#FFFFFF;}
	.st2{fill:#F16D23;}
	.st3{fill:#0C3C55;}
</style>
<g>
	<path class="st3" d="M248.89,253.52c0-10.31,2.85-18.46,8.55-24.45c5.7-5.99,13.44-8.98,23.2-8.98c9.8,0,17.57,3,23.33,9
		c5.76,6,8.64,14.15,8.64,24.43c0,10.28-2.88,18.43-8.64,24.43c-5.76,6-13.54,9.01-23.33,9.01c-9.77,0-17.5-2.99-23.2-8.98
		C251.74,271.98,248.89,263.83,248.89,253.52z M265.4,253.52c0,6.46,1.31,11.42,3.94,14.87c2.63,3.45,6.4,5.17,11.31,5.17
		c4.94,0,8.74-1.72,11.4-5.17c2.66-3.45,3.99-8.4,3.99-14.87c0-6.43-1.33-11.38-3.99-14.84c-2.66-3.46-6.46-5.19-11.4-5.19
		c-4.91,0-8.68,1.72-11.31,5.17C266.71,242.1,265.4,247.06,265.4,253.52z"/>
	<path class="st3" d="M322.4,285.19v-63.47h29.04c7.35,0,12.95,1.7,16.8,5.11c3.85,3.4,5.77,8.32,5.77,14.76
		c0,6.75-1.9,11.93-5.69,15.53c-3.79,3.61-9.25,5.41-16.37,5.41h-13.23v22.66H322.4z M338.73,249.73h10.77
		c2.93,0,5.09-0.62,6.49-1.87c1.39-1.25,2.09-3.18,2.09-5.8c0-2.53-0.73-4.42-2.18-5.67c-1.45-1.25-3.64-1.87-6.57-1.87h-10.6
		V249.73z"/>
	<path class="st2" d="M439.52,262.96c-1.09,7.61-4.09,13.52-8.98,17.71c-4.9,4.19-11.23,6.29-18.98,6.29
		c-9.28,0-16.76-3.03-22.45-9.09s-8.53-14.03-8.53-23.91c0-10.28,2.89-18.49,8.68-24.6c5.79-6.12,13.54-9.18,23.25-9.18
		c7.7,0,13.98,2.03,18.85,6.08c4.87,4.05,7.65,9.58,8.34,16.59h-15.25c-0.75-3.04-2.16-5.34-4.24-6.87
		c-2.08-1.54-4.82-2.31-8.21-2.31c-4.54,0-8.13,1.8-10.77,5.39c-2.64,3.59-3.96,8.5-3.96,14.74c0,6.2,1.25,11.02,3.75,14.46
		c2.5,3.43,6.02,5.15,10.56,5.15c3.65,0,6.57-0.89,8.77-2.67c2.2-1.78,3.57-4.37,4.12-7.76H439.52z"/>
	<g>
		<path class="st3" d="M180.17,235.63c20.37,0,40.36,0,60.41,0c0-5.18,0-10.12,0-15.16c-3.43-0.38-6.34-0.5-8.9,2.55
			c-3.71,4.41-7.97,8.36-12,12.51c-0.22-0.12-0.45-0.25-0.67-0.37c0-4.85,0-9.71,0-14.85c-1.67,0-3.03,0-4.4,0
			c-10.72,0-21.44-0.01-32.16,0.01c-1,0-2.28-0.36-2.28,1.37C180.17,226.25,180.17,230.82,180.17,235.63z"/>
		<path class="st3" d="M218.86,235.89c-5.98,6.01-11.58,11.59-17.09,17.27c-0.51,0.53-0.55,1.66-0.56,2.51
			c-0.04,7.44-0.02,14.88-0.02,22.32c0,2.35,0,4.7,0,7.21c6.01,0,11.76,0,17.67,0C218.86,268.92,218.86,252.77,218.86,235.89z"/>
		<path class="st3" d="M180.17,235.63c0-4.81,0-9.38,0-13.95c0-1.73,1.28-1.37,2.28-1.37c10.72-0.01,21.44-0.01,32.16-0.01
			c1.37,0,2.74,0,4.4,0c0,5.15,0,10,0,14.85c0.22,0.12,0.45,0.25,0.67,0.37c4.03-4.15,8.29-8.1,12-12.51
			c2.56-3.05,5.47-2.92,8.9-2.55c0,5.04,0,9.99,0,15.16C220.52,235.63,200.53,235.63,180.17,235.63z"/>
		<path class="st3" d="M218.86,235.89c0,16.88,0,33.03,0,49.3c-5.91,0-11.66,0-17.67,0c0-2.51,0-4.86,0-7.21
			c0-7.44-0.02-14.88,0.02-22.32c0-0.85,0.04-1.98,0.56-2.51C207.27,247.48,212.88,241.9,218.86,235.89z"/>
	</g>
	<polygon class="st2" points="449.28,286.27 480.33,265.37 512.75,286.27 512.75,291.11 480.28,270.06 449.28,291.11 	"/>
	<polygon class="st3" points="512.75,283.1 480.18,262.64 449.28,281.98 449.28,263.46 466.26,253.72 449.28,244.02 449.28,225.49 
		480.18,245.01 512.75,224.33 512.75,243.07 494.31,253.72 512.75,264.49 	"/>
	<polygon class="st2" points="512.75,283.05 480.18,262.59 449.28,281.93 449.28,263.41 480.18,244.96 512.75,264.44 	"/>
</g>
</svg>
